<?xml version="1.0" encoding="UTF-8" standalone="no"?>
<!DOCTYPE svg PUBLIC "-//W3C//DTD SVG 1.1//EN" "http://www.w3.org/Graphics/SVG/1.1/DTD/svg11.dtd">
<svg xmlns="http://www.w3.org/2000/svg" xmlns:xlink="http://www.w3.org/1999/xlink" version="1.1" width="1581.79pt" height="1810pt" viewBox="0 0 1581.79 1810">
<g enable-background="new">
<g>
<g id="Layer-1" data-name="Layer 1">
<clipPath id="cp0">
<path transform="matrix(1,0,0,-1,0,1810)" d="M 0 1810 L 1581.793 1810 L 1581.793 0 L 0 0 Z "/>
</clipPath>
<g clip-path="url(#cp0)">
<path transform="matrix(1,0,0,-1,1495.459,1389.9766)" d="M 0 0 C -18.661 -26.528 -53.375 -42.175 -103.179 -46.507 C -156.042 -51.106 -224.895 -42.173 -302.295 -20.677 C -332.618 -12.254 -363.987 -2.051 -396.268 9.875 C -375.643 100.845 -361.201 201.171 -353.546 306.728 C -299.708 349.155 -249.287 392.711 -203.112 436.631 C -156.498 387.397 -116.161 338.798 -82.702 291.497 C -36.311 225.916 -4.635 164.132 8.902 112.827 C 21.656 64.488 18.661 26.528 0 0 M -348.772 574.773 C -320.681 550.641 -293.591 526.152 -267.642 501.363 C -260.526 494.565 -253.525 487.775 -246.637 480.992 C -253.646 474.335 -260.768 467.671 -268.005 461.002 C -293.938 437.106 -320.964 413.52 -348.954 390.294 C -347.776 421.541 -347.174 453.133 -347.174 484.977 C -347.174 515.161 -347.712 545.12 -348.772 574.773 M -333.344 972.378 C -310.299 937.543 -270.777 914.562 -225.882 914.562 C -167.528 914.562 -118.25 953.382 -102.439 1006.603 C -99.486 1006.38 -96.57 1006.126 -93.711 1005.825 C -43.992 1000.597 -9.565 984.327 8.615 957.468 C 26.796 930.608 29.107 892.601 15.485 844.5 C 1.028 793.446 -31.755 732.243 -79.318 667.507 C -113.623 620.815 -154.828 572.95 -202.321 524.562 C -248.52 570.117 -299.121 615.375 -353.274 659.512 C -360.646 763.445 -374.596 862.358 -394.538 952.343 C -373.745 959.724 -353.343 966.396 -333.344 972.378 M -229.17 1122.779 L -190.814 1122.779 L -223.69 1057.026 L -163.417 1057.026 L -236.841 963.876 L -226.978 1021.958 L -288.347 1023.054 Z M -413.642 338.619 C -451.748 309.306 -491.38 280.691 -532.38 252.939 C -585.391 217.059 -638.889 183.825 -692.422 153.466 C -745.4 184.784 -798.292 218.974 -850.648 255.803 C -890.279 283.681 -928.578 312.365 -965.414 341.692 C -968.207 388.693 -969.633 436.522 -969.633 484.977 C -969.633 534.486 -968.152 583.347 -965.236 631.334 C -927.131 660.647 -887.498 689.262 -846.498 717.014 C -793.488 752.895 -739.99 786.128 -686.456 816.487 C -633.478 785.169 -580.586 750.979 -528.23 714.15 C -488.599 686.272 -450.3 657.588 -413.464 628.261 C -410.671 581.26 -409.245 533.431 -409.245 484.977 C -409.245 435.467 -410.726 386.606 -413.642 338.619 M -433.356 149.412 C -439.464 108.868 -446.611 70.001 -454.752 32.954 C -489.737 47.61 -525.64 64.127 -562.314 82.458 C -584.807 93.701 -607.351 105.53 -629.91 117.88 C -585.725 143.88 -541.478 171.828 -497.587 201.536 C -471.217 219.386 -445.392 237.593 -420.176 256.083 C -423.72 219.885 -428.104 184.282 -433.356 149.412 M -513.003 -296.386 L -503.14 -238.305 L -564.509 -237.208 L -505.331 -137.483 L -466.976 -137.483 L -499.852 -203.236 L -439.579 -203.236 Z M -596.026 -304.945 C -626.939 -340.117 -658.344 -357.952 -689.439 -357.952 C -721.873 -357.952 -754.644 -338.562 -786.842 -300.318 C -821.018 -259.728 -853.326 -198.273 -880.275 -122.598 C -891.564 -90.896 -901.878 -57.045 -911.176 -21.216 C -840.549 6.744 -767.18 41.475 -693.065 82.021 C -617.134 38.688 -541.889 1.593 -469.524 -28.158 C -475.089 -49.15 -481.008 -69.445 -487.27 -89.018 C -492.119 -88.463 -497.046 -88.169 -502.044 -88.169 C -573.159 -88.169 -630.81 -145.819 -630.81 -216.935 C -630.81 -250.974 -617.596 -281.921 -596.026 -304.945 M -945.522 149.412 C -950.867 184.898 -955.311 221.146 -958.887 258.006 C -935.242 240.078 -911.049 222.4 -886.361 205.034 C -843.012 174.541 -799.275 145.801 -755.565 119.011 C -778.342 107.068 -801.095 95.647 -823.787 84.811 C -858.484 68.241 -892.475 53.252 -925.637 39.885 C -933.155 74.839 -939.795 111.391 -945.522 149.412 M -945.522 820.541 C -939.415 861.085 -932.268 899.952 -924.126 936.999 C -889.141 922.344 -853.239 905.827 -816.564 887.495 C -794.071 876.252 -771.528 864.423 -748.968 852.073 C -793.154 826.073 -837.401 798.125 -881.291 768.417 C -907.662 750.567 -933.487 732.36 -958.703 713.87 C -955.159 750.068 -950.774 785.671 -945.522 820.541 M -880.275 1092.551 C -853.326 1168.226 -821.018 1229.681 -786.842 1270.271 C -754.644 1308.514 -721.873 1327.905 -689.439 1327.905 C -657.005 1327.905 -624.234 1308.514 -592.037 1270.271 C -557.861 1229.681 -525.553 1168.226 -498.603 1092.551 C -487.314 1060.849 -477.001 1026.997 -467.702 991.169 C -538.33 963.209 -611.699 928.479 -685.813 887.932 C -761.744 931.265 -836.989 968.36 -909.354 998.111 C -900.536 1031.377 -890.832 1062.904 -880.275 1092.551 M -433.356 820.541 C -428.011 785.055 -423.568 748.808 -419.992 711.947 C -443.636 729.875 -467.83 747.553 -492.518 764.919 C -535.866 795.412 -579.603 824.152 -623.314 850.942 C -600.536 862.885 -577.783 874.306 -555.092 885.143 C -520.395 901.712 -486.404 916.702 -453.242 930.068 C -445.724 895.114 -439.084 858.562 -433.356 820.541 M -1025.333 663.226 C -1079.17 620.798 -1129.592 577.242 -1175.766 533.322 C -1210.195 569.686 -1241.188 605.701 -1268.527 641.105 C -1249.446 663.563 -1237.927 692.647 -1237.927 724.427 C -1237.927 795.542 -1295.578 853.192 -1366.693 853.192 C -1373.356 853.192 -1379.9 852.687 -1386.29 851.71 C -1386.807 853.527 -1387.307 855.335 -1387.78 857.127 C -1400.534 905.465 -1397.539 943.425 -1378.879 969.953 C -1360.218 996.481 -1325.503 1012.128 -1275.699 1016.461 C -1222.837 1021.06 -1153.984 1012.127 -1076.583 990.629 C -1046.261 982.207 -1014.892 972.004 -982.61 960.078 C -1003.236 869.108 -1017.678 768.782 -1025.333 663.226 M -1030.106 395.18 C -1058.198 419.312 -1085.287 443.801 -1111.237 468.59 C -1118.353 475.388 -1125.353 482.179 -1132.242 488.961 C -1125.232 495.619 -1118.11 502.282 -1110.874 508.951 C -1084.941 532.847 -1057.915 556.434 -1029.925 579.659 C -1031.103 548.412 -1031.705 516.82 -1031.705 484.977 C -1031.705 454.792 -1031.166 424.833 -1030.106 395.18 M -1085.62 -13.628 C -1163.395 -33.729 -1232.397 -41.421 -1285.168 -35.871 C -1334.886 -30.644 -1369.314 -14.374 -1387.494 12.485 C -1405.675 39.345 -1407.986 77.353 -1394.364 125.453 C -1379.906 176.507 -1347.124 237.711 -1299.56 302.446 C -1265.255 349.138 -1224.051 397.003 -1176.557 445.391 C -1130.359 399.836 -1079.758 354.578 -1025.604 310.441 C -1018.233 206.508 -1004.282 107.595 -984.341 17.61 C -1019.224 5.228 -1053.038 -5.207 -1085.62 -13.628 M -1377.652 644.975 L -1367.789 703.057 L -1429.158 704.152 L -1369.981 803.878 L -1331.625 803.878 L -1364.501 738.125 L -1304.228 738.125 Z M -32.027 327.343 C -67.547 377.556 -110.219 428.898 -158.812 480.202 C -109.303 530.623 -65.714 581.188 -29.297 630.755 C 23.354 702.416 58.514 768.64 75.208 827.587 C 94.051 894.127 88.941 949.531 60.019 992.261 C 31.096 1034.991 -18.442 1060.324 -87.22 1067.556 C -91.288 1067.983 -95.421 1068.342 -99.61 1068.641 C -111.371 1127.634 -163.432 1172.093 -225.882 1172.093 C -296.998 1172.093 -354.648 1114.443 -354.648 1043.327 C -354.648 1039.156 -354.442 1035.034 -354.054 1030.965 C -372.185 1025.493 -390.587 1019.506 -409.241 1012.984 C -418.561 1048.2 -428.87 1081.756 -440.13 1113.375 C -469.961 1197.145 -505.095 1263.383 -544.553 1310.249 C -589.094 1363.152 -637.841 1389.977 -689.439 1389.977 C -741.037 1389.977 -789.784 1363.152 -834.325 1310.249 C -873.784 1263.383 -908.917 1197.145 -938.749 1113.375 C -949.185 1084.068 -958.803 1053.096 -967.574 1020.683 C -999.132 1032.157 -1029.999 1042.11 -1059.972 1050.436 C -1145.653 1074.233 -1220.043 1083.607 -1281.078 1078.299 C -1349.974 1072.305 -1399.961 1047.868 -1429.647 1005.665 C -1459.334 963.463 -1465.44 908.159 -1447.797 841.291 C -1446.598 836.745 -1445.277 832.148 -1443.862 827.514 C -1475.189 804.026 -1495.459 766.594 -1495.459 724.427 C -1495.459 653.311 -1437.809 595.66 -1366.693 595.66 C -1349.817 595.66 -1333.702 598.912 -1318.934 604.814 C -1289.659 566.767 -1256.53 528.248 -1220.067 489.751 C -1269.575 439.33 -1313.164 388.765 -1349.582 339.198 C -1402.233 267.537 -1437.393 201.313 -1454.086 142.366 C -1472.93 75.826 -1467.82 20.422 -1438.897 -22.308 C -1409.975 -65.038 -1360.436 -90.371 -1291.659 -97.603 C -1230.73 -104.009 -1156.183 -95.976 -1070.088 -73.724 C -1037.592 -65.325 -1004.025 -55.054 -969.637 -43.031 C -960.318 -78.247 -950.009 -111.803 -938.749 -143.421 C -908.917 -227.191 -873.784 -293.43 -834.325 -340.296 C -789.784 -393.199 -741.037 -420.023 -689.439 -420.023 C -637.841 -420.023 -589.094 -393.199 -544.553 -340.296 C -544.17 -339.841 -543.789 -339.371 -543.407 -338.912 C -530.424 -343.313 -516.513 -345.7 -502.044 -345.7 C -430.928 -345.7 -373.278 -288.05 -373.278 -216.935 C -373.278 -172.908 -395.378 -134.05 -429.085 -110.828 C -422.821 -91.416 -416.89 -71.368 -411.305 -50.729 C -379.746 -62.204 -348.88 -72.157 -318.906 -80.482 C -233.226 -104.28 -158.835 -113.654 -97.801 -108.346 C -28.904 -102.352 21.082 -77.915 50.769 -35.712 C 80.456 6.49 86.562 61.794 68.919 128.662 C 53.289 187.899 19.326 254.746 -32.027 327.343 " fill="#000000"/>
<path transform="matrix(1,0,0,-1,734.0706,920.21)" d="M 0 0 C -11.042 0 -17.609 -4.477 -21.787 -8.655 C -25.07 -12.236 -28.054 -17.012 -29.248 -22.98 L 28.95 -22.98 C 28.651 -21.787 26.562 -13.43 20.295 -7.461 C 15.519 -2.984 8.655 0 0 0 " fill="#000000"/>
<path transform="matrix(1,0,0,-1,802.7144,968.8574)" d="M 0 0 L -99.384 0 C -99.384 -7.163 -96.698 -16.713 -91.326 -22.682 C -84.76 -29.845 -75.807 -31.039 -69.24 -31.039 C -62.973 -31.039 -56.407 -29.845 -51.931 -27.159 C -51.333 -26.86 -46.26 -23.577 -42.679 -16.116 L -2.09 -20.294 C -8.058 -39.097 -19.996 -48.945 -27.756 -53.721 C -40.589 -61.48 -54.915 -63.569 -69.838 -63.569 C -89.834 -63.569 -107.442 -59.988 -122.962 -44.469 C -134.601 -32.829 -142.958 -15.221 -142.958 6.864 C -142.958 25.966 -136.094 45.663 -122.663 59.392 C -106.547 75.508 -86.551 78.493 -71.628 78.493 C -56.706 78.493 -35.217 75.807 -18.803 58.497 C -2.985 41.783 0 20.892 0 4.478 Z M 143.102 204.89 L 105.82 123.951 L 153.27 117.48 L 153.445 117.6 L 153.384 117.465 L 154.01 117.38 L 151.965 114.283 L 76.07 -55.806 L 49.26 -55.806 L -23.694 116.139 L 19.099 116.139 L 62.665 6.063 L 96.483 78.434 L 48.054 86.487 L 113.188 210.705 L 140.918 206.924 C 105.875 239.202 59.088 258.924 7.689 258.924 C -100.951 258.924 -189.021 170.854 -189.021 62.214 C -189.021 -46.427 -100.951 -134.497 7.689 -134.497 C 116.329 -134.497 204.399 -46.427 204.399 62.214 C 204.399 118.381 180.855 169.047 143.102 204.89 " fill="#000000"/>
</g>
</g>
</g>
</g>
</svg>
